<?xml version="1.0" encoding="UTF-8" standalone="no"?>
<!DOCTYPE svg PUBLIC "-//W3C//DTD SVG 1.1//EN" "http://www.w3.org/Graphics/SVG/1.1/DTD/svg11.dtd">
<svg width="100%" height="100%" viewBox="0 0 1800 1800" version="1.1" xmlns="http://www.w3.org/2000/svg" xmlns:xlink="http://www.w3.org/1999/xlink" xml:space="preserve" xmlns:serif="http://www.serif.com/" style="fill-rule:evenodd;clip-rule:evenodd;stroke-linejoin:round;stroke-miterlimit:2;">
    <g id="nn.png" transform="matrix(2.633789,0,0,2.633789,-430.044552,-445.68011)">
        <path d="M297.555,535.311C303.388,531.246 304.498,523.36 312.456,522.215C315.799,521.734 316.091,521.85 358.628,546.285C394.088,566.654 401.084,568.252 398.233,577.421C396.742,582.217 343.41,662.397 334.86,675.719C331.085,681.601 337.799,686.887 344.142,682.088C346.87,680.024 401.59,593.96 406.986,586.91C410.535,582.272 413.256,586.276 448.728,606.074C485.901,626.823 510.501,642.134 512.576,641.7C513.705,641.464 529.867,632.088 531.355,631.225C589.733,597.357 593.861,597.343 592.771,591.447C591.332,583.663 583.353,588.309 582.627,588.732C552.273,606.409 520.007,624.507 514.537,627.575C514.24,627.449 513.943,628.083 513.646,627.957C511.664,627.115 512.061,626.684 512.049,624.51C512.029,620.922 512.003,620.972 511.505,617.444C513.533,617.263 513.497,617.275 515.348,616.217C575.087,582.089 575.168,582.244 580.353,579.26C597.379,569.463 599.86,566.996 603.036,570.864C606.542,575.134 600.756,578.647 600.166,579.006C595.744,581.691 602.542,583.167 602.912,590.444C603.368,599.412 599.386,602.992 592.696,606.817C543.996,634.663 519.541,649.286 513.561,650.957C511.26,651.122 510.664,652.385 494.324,642.797C475.446,631.718 421.583,601.864 414.262,596.889C410.682,594.456 411.094,597.888 399.012,616.164C366.496,665.351 357.304,680.725 353.139,686.232C351.917,687.847 342.975,699.668 328.251,690.914C321.413,686.848 275.535,659.571 242.288,640.913C225.548,631.52 237.375,623.274 241.767,615.343C245.152,616.851 258.25,627.174 259.198,618.454C259.764,613.247 251.21,610.762 248.511,608.468C247.639,607.727 247.609,607.889 246.589,607.235C246.874,607.01 247.357,607.18 247.642,606.955C248.033,606.646 253.824,598.358 254.351,597.603C260.388,600.56 267.74,607.41 270.621,602.586C274.219,596.563 266.439,594.941 259.537,589.367C259.779,589.158 260.254,589.592 260.496,589.383C260.588,589.303 260.532,589.276 260.994,587.934C264.268,583.319 264.349,583.429 266.642,579.397C269.954,580.567 274.638,584.068 274.744,584.137C283.811,590.039 285.598,582.275 284.056,579.754C283.463,578.784 283.411,578.781 272.504,571.473C272.822,571.131 273.14,570.788 273.458,570.446C277.935,564.332 279.057,562.277 279.469,561.521C292.68,569.553 294.1,568.766 295.299,568.101C298.08,566.558 298.429,562.372 295.134,559.923C291.105,556.93 287.928,556.363 285.498,553.517C289.362,548.746 289.66,548.977 292.509,543.494C293.063,543.892 301.783,548.869 302.593,549.331C308.852,552.904 315.078,545.578 305.222,539.964C303.959,539.245 300.95,537.957 297.555,535.311Z" style="fill:rgb(86,162,157);"/>
        <path d="M512.425,667.4C511.204,675.354 512.654,786.138 511.771,795.077C509.649,794.21 509.534,794.584 506.761,793.029C504.981,792.032 505.111,791.944 503.266,790.925C490.021,783.607 490.115,783.509 442.266,755.894C384.439,722.521 384.322,722.742 379.324,719.789C365.129,711.399 353.294,708.016 362.143,694.248C365.238,689.431 390.629,649.924 401.107,634.221C409.44,621.733 411.366,614.809 418.519,615.218C422.684,615.457 472.276,645.383 505.383,663.722C511.558,667.142 511.207,667.66 511.765,667.906C512.019,668.018 512.171,667.289 512.425,667.4Z" style="fill:rgb(204,174,106);"/>
        <path d="M661.399,653.167C665.145,658.631 664.839,658.999 667.627,660.573C667.592,660.83 666.59,661.308 667.765,663.362C676.422,678.488 685.42,687.19 679.522,690.531C674.879,693.161 671.222,686.268 670.125,684.753C660.356,671.25 659.571,665.199 656.294,667.095C650.076,670.691 647.191,671.435 649.78,675.32C654.019,681.682 653.94,681.675 657.951,688.22C658.827,689.65 670.344,703.359 661.175,710.101C657.973,712.456 525.482,788.353 524.234,789.045C513.738,794.861 513.785,795.268 511.771,795.077C512.654,786.138 511.204,675.354 512.425,667.4C514.623,666.096 514.553,666.094 514.744,665.99C546.62,648.598 545.929,647.53 577.756,629.956C603.875,615.533 606.363,611.804 612.315,617.686C613.883,619.237 634.414,651.431 635.977,654.274C638.77,659.355 635.296,659.359 618.739,668.883C613.594,671.842 612.497,666.153 605.508,668.525C590.87,673.492 598.575,695.325 612.567,690.736C622.055,687.625 620.355,679.063 620.896,677.675C621.473,676.194 661.395,653.169 661.399,653.167Z" style="fill:rgb(68,78,83);"/>
        <path d="M723.181,532.69C723.297,532.822 724.626,534.343 724.626,534.343C731.64,540.02 730.725,540.907 775.9,605.225C785.943,619.524 796.166,629.579 787.412,637.394C784.51,639.985 753.319,657.5 750.318,659.186C747.292,660.885 724.165,673.872 712.779,680.92C691.748,693.939 692.802,678.219 677.379,657.599C676.23,656.063 675.285,654.828 667.627,660.573C664.839,658.999 665.145,658.631 661.399,653.167C663.059,652.11 673.904,645.207 682.599,640.697C687.913,637.94 688.088,640.359 691.416,640.876C706.856,643.273 710.294,620.772 695.584,618.092C682.326,615.676 681.471,631.531 681.022,632.107C680.424,632.872 667.748,640.18 667.434,640.282C665.144,641.024 663.764,635.965 648.121,612.746C638.228,598.061 631.521,590.472 643.559,583.594C701.967,550.218 701.642,549.773 706.75,546.934C713.984,542.914 717.704,542.305 713.156,534.967C718.131,533.025 719.27,536.296 723.181,532.69Z" style="fill:rgb(175,148,86);"/>
        <path d="M384.847,410.781C390.127,404.103 390.269,399.658 397.492,398.438C403.382,397.442 423.988,412.45 434.572,417.142C437.839,419.424 441.97,421.255 442.643,421.554C435.134,433.078 432.52,438.933 429.473,439.132C428.33,439.207 419.566,439.782 417.928,447.593C413.843,467.076 447.306,467.102 439.194,444.619C438.195,441.852 441.781,437.288 449.533,426.534C450.271,426.789 455.659,428.649 458.439,430.54C465.499,435.742 469.335,436.13 472.5,439.5C478.727,446.131 473.815,450.312 459.095,473.246C457.756,475.332 442.593,498.957 442.275,499.272C440.393,501.136 428.476,492.032 415.655,485.202C410.285,482.342 408.914,487.336 408.961,488.485C409.147,492.944 427.677,500.375 436.888,507.171C434.856,511.429 434.583,511.225 432.501,515.505C432.259,515.668 431.892,515.548 431.649,515.711C429.335,517.266 411.261,549.621 405.549,552.587C396.69,557.187 396.371,552.269 331.562,516.387C318.298,509.044 318.915,505.001 327.561,492.545C329.99,491.187 332.039,493.663 335.764,496.063C336.335,496.43 341.399,499.694 344.181,497.156C350.298,491.574 337.174,486.789 334.478,483.49C334.911,482.74 337.628,478.049 340.483,474.486C346.115,474.893 356.843,485.968 358.106,476.448C358.87,470.687 349.266,468.897 347.585,466.477C347.368,466.166 347.463,465.702 347.247,465.39C350.274,460.579 350.173,460.559 353.509,456.51C359.261,457.515 365.039,465.178 369.429,461.412C375.944,455.822 362.542,451.792 359.463,447.483C359.9,446.736 361.598,443.836 365.477,438.484C367.138,437.553 367.21,438.193 367.578,438.228C372.411,441.024 380.943,448.064 383.5,441.5C385.754,435.714 377.195,434.888 372.461,429.491C372.87,428.653 375.302,423.669 378.708,419.66C386.801,422.626 393.437,430.249 396.148,423.369C397.936,418.83 392.13,416.329 385.885,412.161L384.847,410.781Z" style="fill:rgb(68,77,82);"/>
        <path d="M565.143,390.875C572.029,402.348 603.436,445.974 603.865,449.43C603.983,450.383 600.594,470.689 597.297,473.252C594.512,475.416 575.18,485.602 575.008,487.452C574.909,488.519 575.216,488.405 579.16,494.709C580.202,496.373 580.402,496.142 581.704,497.644C576.563,501.109 571.536,504.489 569.869,502.199C563.036,492.815 540.742,455.56 536.387,452.69C530.517,448.823 524.964,454.818 512.327,461.061C498.275,456.28 493.149,443.326 482.83,458.705C480.344,462.411 452.581,503.788 452.457,505.495C452.379,506.571 452.516,506.863 465.348,514.788C470.065,517.7 471.353,512.481 477.429,514.704C493.482,520.578 483.787,540.318 471.436,536.737C461.125,533.746 463.549,523.046 462.102,521.981C457.798,518.813 440.665,509.215 438.773,508.155C437.827,507.625 437.859,507.678 436.888,507.171C427.677,500.375 409.147,492.944 408.961,488.485C408.914,487.336 410.285,482.342 415.655,485.202C428.476,492.032 440.393,501.136 442.275,499.272C442.593,498.957 457.756,475.332 459.095,473.246C473.815,450.312 478.727,446.131 472.5,439.5C469.335,436.13 465.499,435.742 458.439,430.54C464.205,420.122 465.685,420.681 467.426,421.642C484.962,431.324 503.354,443.567 511.458,444.722C518.496,444.38 518.364,443.347 565.252,417.076C569.639,414.618 570.616,413.945 568.957,411.224C566.378,406.996 565.705,405.851 561.373,408.252C513.683,434.692 513.472,436.558 510.617,435.225C505.266,432.726 477.613,416.711 474.766,415.062C465.285,409.571 462.037,406.34 459.899,409.763C454.658,418.157 454.849,418.183 449.533,426.534C441.781,437.288 438.195,441.852 439.194,444.619C447.306,467.102 413.843,467.076 417.928,447.593C419.566,439.782 428.33,439.207 429.473,439.132C432.52,438.933 435.134,433.078 442.643,421.554C443.559,420.216 453.377,405.875 453.707,404.573C454.293,402.259 452.783,402.764 429.287,388.848C428.324,388.277 418.37,382.382 423.971,375.91C427.735,371.561 428.807,375.376 466.338,395.809C472.891,399.377 506.627,419.188 511.429,420.744C515.098,420.287 515.38,420.252 552.219,399.015C554.253,397.842 558.79,396.411 556.923,393.264C555.914,391.562 545.504,374.009 542.683,373.038C542.444,372.956 530.273,373.466 528.567,362.491C526.396,348.532 549.593,343.769 551.559,360.498C552.039,364.581 548.438,366.467 551.204,370.69C552.279,372.331 557.48,380.273 565.143,390.875Z" style="fill:rgb(228,229,226);"/>
        <path d="M510.581,228.966C510.758,229.154 511.179,228.819 511.357,229.007C511.496,229.155 512.613,230.339 512.5,231.274C512.474,231.49 511.926,231.317 511.902,231.533C511.736,233.022 511.865,269.215 511.877,272.492C511.964,296.996 512.014,296.952 511.904,321.496C511.819,340.402 512.636,413.337 511.429,420.744C506.627,419.188 472.891,399.377 466.338,395.809C428.807,375.376 427.735,371.561 423.971,375.91C418.37,382.382 428.324,388.277 429.287,388.848C452.783,402.764 454.293,402.259 453.707,404.573C453.377,405.875 443.559,420.216 442.643,421.554C441.97,421.255 437.839,419.424 434.572,417.142C439.402,408.213 441.948,407.061 438.238,404.951C423.806,396.742 410.61,391.159 411.53,376.501C412.063,368.011 418.768,360.427 427.138,347.27C427.767,346.282 427.822,346.39 428.524,345.486C434.103,346.783 443.407,356.572 446.757,349.637C449.177,344.627 443.653,342.188 436.398,337.751C435.772,337.292 435.146,336.834 434.52,336.375C437.914,332.573 437.507,332.361 442.325,324.622C447.896,327.01 460.834,337.934 461.1,326.514C461.197,322.346 454.961,320.617 448.493,315.741C452.921,310.536 452.156,310.049 456.349,304.582C462.345,306.778 472.626,316.234 474.624,307.527C475.813,302.343 472.669,303.595 462.5,295.479C465.271,290.386 469.429,284.755 470.088,283.862C476.135,286.789 484.93,294.471 487.599,288.551C490.619,281.849 481.035,278.989 475.422,274.901C475.678,274.723 476.013,275.153 477.31,273.368C478.48,271.758 483.137,264.227 483.633,263.425C487.251,264.449 501.665,276.061 502.125,265.501C502.326,260.877 494.892,258.717 489.513,254.444C489.771,254.245 490.221,254.499 490.479,254.301C491.043,253.867 490.634,253.685 491.039,253.096C503.467,235.029 503.602,231.028 510.581,228.966Z" style="fill:rgb(87,166,160);"/>
        <path d="M512.327,461.061C511.604,472.107 512.305,602.051 511.966,602.5C511.54,603.065 510.754,603.286 510.327,603.851C506.681,602.012 506.757,601.988 503.23,599.958C497.893,596.887 448.181,568.278 436.289,561.985C431.01,559.191 425.024,567.014 431.868,572.013C437.572,576.179 511.205,617.306 511.505,617.444C512.003,620.972 512.029,620.922 512.049,624.51C512.061,626.684 511.664,627.115 513.646,627.957C513.943,628.083 514.24,627.449 514.537,627.575C514.181,627.7 512.934,628.834 510.336,627.875C507.172,626.708 450.512,593.796 445.335,590.789C427.196,580.252 418.116,578.169 418.096,564.494C418.079,553.545 439.018,527.531 441.174,522.378C441.77,520.952 440.837,520.392 432.501,515.505C434.583,511.225 434.856,511.429 436.888,507.171C437.859,507.678 437.827,507.625 438.773,508.155C440.665,509.215 457.798,518.813 462.102,521.981C463.549,523.046 461.125,533.746 471.436,536.737C483.787,540.318 493.482,520.578 477.429,514.704C471.353,512.481 470.065,517.7 465.348,514.788C452.516,506.863 452.379,506.571 452.457,505.495C452.581,503.788 480.344,462.411 482.83,458.705C493.149,443.326 498.275,456.28 512.327,461.061Z" style="fill:rgb(89,165,160);"/>
        <path d="M512.327,461.061C524.964,454.818 530.517,448.823 536.387,452.69C540.742,455.56 563.036,492.815 569.869,502.199C571.536,504.489 576.563,501.109 581.704,497.644C584.33,496.591 585.052,495.585 590.782,491.993C600.855,485.678 601.705,490.428 603.509,495.507C590.697,505.563 576.188,509.724 577.369,513.546C577.904,515.279 593.527,538.983 594.969,541.171C604.36,555.422 596.934,557.061 579.637,566.741C577.637,567.86 577.759,568.002 554.74,580.91C513.737,603.902 513.547,605.098 510.327,603.851C510.754,603.286 511.54,603.065 511.966,602.5C512.305,602.051 511.604,472.107 512.327,461.061Z" style="fill:rgb(69,128,128);"/>
        <path d="M510.581,228.966C516.63,228.82 517.119,229.539 520.977,235.183C526.925,243.884 575.989,315.658 594.965,344.194C603.604,357.186 612.737,365.178 599.26,373.068C589.721,378.652 589.501,378.576 588.604,378.266C587.233,377.791 560.62,336.425 553.685,327.365C549.693,322.15 555.017,319.97 552.728,313.431C547.921,299.696 528.206,306.368 530.42,318.508C532.45,329.639 542.392,328.52 544.409,328.89C546.243,329.227 549.588,334.873 553.891,341.264C566.943,360.652 581.134,381.026 580.833,382.597C580.723,383.171 580.707,383.25 574.804,386.731C569.979,388.857 570.103,389.011 565.143,390.875C557.48,380.273 552.279,372.331 551.204,370.69C548.438,366.467 552.039,364.581 551.559,360.498C549.593,343.769 526.396,348.532 528.567,362.491C530.273,373.466 542.444,372.956 542.683,373.038C545.504,374.009 555.914,391.562 556.923,393.264C558.79,396.411 554.253,397.842 552.219,399.015C515.38,420.252 515.098,420.287 511.429,420.744C512.636,413.337 511.819,340.402 511.904,321.496C512.014,296.952 511.964,296.996 511.877,272.492C511.865,269.215 511.736,233.022 511.902,231.533C511.926,231.317 512.474,231.49 512.5,231.274C512.613,230.339 511.496,229.155 511.357,229.007C511.179,228.819 510.758,229.154 510.581,228.966Z" style="fill:rgb(69,128,129);"/>
        <path d="M607.471,538.519C606.024,536.406 606.031,536.422 605.909,536.237C605.417,535.494 605.522,535.513 605.047,534.786C591.194,513.59 591.454,513.272 591.723,512.615C592.322,511.149 636.698,486.152 643.229,482.093C648.252,478.97 641.915,472.299 636.964,465.16C634.021,460.916 600.931,413.197 601.166,411.437C601.269,410.664 605.011,408.485 605.375,408.273C622.379,398.374 627.011,395.519 633.406,402.58C637.5,407.098 692.991,487.349 698.115,494.76C708.498,509.776 699.905,512.126 687.723,518.912C683.337,521.355 653.816,537.8 633.328,550.199C618.811,558.984 616.72,551.954 607.471,538.519Z" style="fill:rgb(204,174,105);"/>
        <path d="M574.804,386.731C576.808,390.903 577.108,390.687 581.175,396.719C625.985,463.179 635.734,475.389 635.076,477.311C634.789,478.149 607.046,494.51 603.509,495.507C601.705,490.428 600.855,485.678 590.782,491.993C585.052,495.585 584.33,496.591 581.704,497.644C580.402,496.142 580.202,496.373 579.16,494.709C575.216,488.405 574.909,488.519 575.008,487.452C575.18,485.602 594.512,475.416 597.297,473.252C600.594,470.689 603.983,450.383 603.865,449.43C603.436,445.974 572.029,402.348 565.143,390.875C570.103,389.011 569.979,388.857 574.804,386.731Z" style="fill:rgb(191,166,105);"/>
        <path d="M723.181,532.69C719.27,536.296 718.131,533.025 713.156,534.967C712.851,534.774 710.571,532.568 706.602,533.829C702.815,535.032 702.939,535.197 663.343,558.234C634.257,575.156 623.963,577.665 624.945,593.459C625.237,598.167 625.274,598.763 654.848,644.286C656.765,647.237 655.385,647.557 652.364,649.271C648.111,651.685 647.552,650.303 644.892,646.236C615.73,601.653 615.594,600.234 615.145,595.555C613.002,573.253 630.84,566.142 636.206,563.015C640.203,560.685 665.854,545.738 686.329,534.168C700.634,526.085 712.904,515.933 723.181,532.69Z" style="fill:rgb(72,126,127);"/>
        <path d="M566.585,475.446C550.531,450.187 546.919,449.016 550.261,441.385C550.906,439.913 551.491,438.577 566.769,429.942C576.105,424.665 577.342,423.316 579.99,427.153C581.223,428.939 592.297,444.988 595.086,449.688C595.891,451.045 595.794,451.185 592.77,464.577C592.255,466.856 592.327,467.381 572.651,478.789C568.997,480.908 568.857,479.016 566.585,475.446Z" style="fill:rgb(203,173,106);"/>
        <path d="M449.533,426.534C454.849,418.183 454.658,418.157 459.899,409.763C462.037,406.34 465.285,409.571 474.766,415.062C477.613,416.711 505.266,432.726 510.617,435.225C513.472,436.558 513.683,434.692 561.373,408.252C565.705,405.851 566.378,406.996 568.957,411.224C570.616,413.945 569.639,414.618 565.252,417.076C518.364,443.347 518.496,444.38 511.458,444.722C503.354,443.567 484.962,431.324 467.426,421.642C465.685,420.681 464.205,420.122 458.439,430.54C455.659,428.649 450.271,426.789 449.533,426.534Z" style="fill:rgb(83,147,145);"/>
        <path d="M448.493,315.741C454.961,320.617 461.197,322.346 461.1,326.514C460.834,337.934 447.896,327.01 442.325,324.622C437.059,320.455 432.505,319.568 433.717,314.562C435.561,306.943 445.827,314.702 448.493,315.741Z" style="fill:rgb(69,80,87);"/>
        <path d="M434.52,336.375C435.146,336.834 435.772,337.292 436.398,337.751C443.653,342.188 449.177,344.627 446.757,349.637C443.407,356.572 434.103,346.783 428.524,345.486C423.039,340.973 418.054,339.94 420.247,334.384C422.653,328.288 430.984,334.62 434.52,336.375Z" style="fill:rgb(67,77,84);"/>
        <path d="M475.422,274.901C481.035,278.989 490.619,281.849 487.599,288.551C484.93,294.471 476.135,286.789 470.088,283.862C467.38,281.951 456.6,277.483 462.591,271.594C466.264,267.984 469.626,272.205 475.422,274.901Z" style="fill:rgb(67,78,85);"/>
        <path d="M489.513,254.444C494.892,258.717 502.326,260.877 502.125,265.501C501.665,276.061 487.251,264.449 483.633,263.425C476.329,257.784 474.578,258.489 474.908,254.524C475.737,244.554 488.184,253.799 489.513,254.444Z" style="fill:rgb(70,80,87);"/>
        <path d="M462.5,295.479C472.669,303.595 475.813,302.343 474.624,307.527C472.626,316.234 462.345,306.778 456.349,304.582C448.759,298.285 446.104,299.107 447.378,294.465C449.562,286.508 458.921,294.54 462.5,295.479Z" style="fill:rgb(69,81,87);"/>
        <path d="M372.461,429.491C377.195,434.888 385.754,435.714 383.5,441.5C380.943,448.064 372.411,441.024 367.578,438.228C366.302,436.515 366.387,436.373 366.203,436.382C365.777,436.405 366.171,437.556 365.745,437.579C363.904,436.333 353.626,430.64 358.858,425.851C362.771,422.269 370.7,429.304 371.616,429.614C371.886,429.705 372.192,429.4 372.461,429.491Z" style="fill:rgb(194,167,101);"/>
        <path d="M384.847,410.781C385.193,411.241 385.539,411.701 385.885,412.161C392.13,416.329 397.936,418.83 396.148,423.369C393.437,430.249 386.801,422.626 378.708,419.66C375.021,416.471 366.707,412.547 371.756,407.809C375.364,404.423 378.74,409.913 384.847,410.781Z" style="fill:rgb(201,175,114);"/>
        <path d="M285.498,553.517C287.928,556.363 291.105,556.93 295.134,559.923C298.429,562.372 298.08,566.558 295.299,568.101C294.1,568.766 292.68,569.553 279.469,561.521C273.549,556.789 270.588,556.109 271.186,552.442C272.395,545.013 281.124,551.826 285.498,553.517Z" style="fill:rgb(66,77,83);"/>
        <path d="M272.504,571.473C283.411,578.781 283.463,578.784 284.056,579.754C285.598,582.275 283.811,590.039 274.744,584.137C274.638,584.068 269.954,580.567 266.642,579.397C263.568,577.302 254.43,572.673 259.806,567.859C263.127,564.885 267.215,569.243 272.504,571.473Z" style="fill:rgb(68,79,84);"/>
        <path d="M297.555,535.311C300.95,537.957 303.959,539.245 305.222,539.964C315.078,545.578 308.852,552.904 302.593,549.331C301.783,548.869 293.063,543.892 292.509,543.494C285.864,538.323 283.755,539.144 283.915,535.497C284.309,526.473 295.525,534.201 297.555,535.311Z" style="fill:rgb(65,76,83);"/>
        <path d="M359.463,447.483C362.542,451.792 375.944,455.822 369.429,461.412C365.039,465.178 359.261,457.515 353.509,456.51C353.098,455.929 352.686,455.349 352.274,454.769C351.086,454.022 341.861,450.023 345.737,444.691C349.08,440.09 356.536,446.669 357.587,447.259C358.933,448.014 358.982,447.425 359.463,447.483Z" style="fill:rgb(200,176,115);"/>
        <path d="M345.497,465.572C345.926,465.623 346.355,465.675 346.784,465.726L347.247,465.39C347.463,465.702 347.368,466.166 347.585,466.477C349.266,468.897 358.87,470.687 358.106,476.448C356.843,485.968 346.115,474.893 340.483,474.486C340.075,473.916 339.666,473.346 339.257,472.776C336,470.664 329.291,467.936 333.484,462.486C336.413,458.679 342.39,464.005 345.497,465.572Z" style="fill:rgb(194,167,101);"/>
        <path d="M246.589,607.235C247.609,607.889 247.639,607.727 248.511,608.468C251.21,610.762 259.764,613.247 259.198,618.454C258.25,627.174 245.152,616.851 241.767,615.343C234.799,610.548 231.58,609.688 233.219,605.377C235.566,599.206 245.168,606.392 246.589,607.235Z" style="fill:rgb(66,76,83);"/>
        <path d="M259.537,589.367C266.439,594.941 274.219,596.563 270.621,602.586C267.74,607.41 260.388,600.56 254.351,597.603C251.298,594.769 242.966,592.403 246.412,586.44C248.802,582.307 254.723,586.545 259.537,589.367Z" style="fill:rgb(66,77,83);"/>
        <path d="M332.5,483.744C333.159,483.659 333.818,483.574 334.478,483.49C337.174,486.789 350.298,491.574 344.181,497.156C341.399,499.694 336.335,496.43 335.764,496.063C332.039,493.663 329.99,491.187 327.561,492.545C327.422,492.253 328.002,491.915 327.863,491.623C327.246,490.327 315.533,485.441 321.248,480.194C325.093,476.663 331.818,483.092 332.5,483.744Z" style="fill:rgb(198,172,111);"/>
        <path d="M596.684,398.808C592.677,401.203 592.557,399.057 589.825,395.268C587.522,392.075 590.896,391.66 598.331,387.205C608.018,381.401 610.257,391.353 603.319,395.184C600.752,396.602 600.779,396.564 598.221,398.003C597.717,398.286 597.188,398.525 596.684,398.808Z" style="fill:rgb(75,131,131);"/>
        <path d="M541.483,312.098C549.899,313.075 546.286,320.568 544.466,321.431C538.038,324.479 532.398,314.171 541.483,312.098Z" style="fill:rgb(204,177,116);"/>
        <path d="M690.495,633.506C686.008,629.022 690.08,625.101 692.54,624.681C700.453,623.331 700.938,637.796 690.495,633.506Z" style="fill:rgb(71,124,125);"/>
        <path d="M614.028,680.446C610.325,690.995 599.594,679.363 606.54,675.561C608.979,674.227 611.178,675.258 611.54,675.428C614.312,676.728 613.529,677.426 614.028,680.446Z" style="fill:rgb(78,131,134);"/>
        <path d="M476.613,529.737C465.235,532.272 469.307,517.69 476.31,520.958C478.328,521.9 479.32,524.048 479.363,525.501C479.442,528.246 478.826,528.093 476.613,529.737Z" style="fill:rgb(70,128,129);"/>
        <path d="M424.156,450.457C424.247,450.127 424.543,446.697 427.628,445.922C428.37,445.735 431.155,445.846 432.251,446.807C438.777,452.531 425.643,460.828 424.156,450.457Z" style="fill:rgb(188,165,105);"/>
        <path d="M539.44,365.922C536.725,365.021 536.297,365.231 535.432,362.525C535.309,362.142 534.521,359.68 536.641,357.649C542.509,352.026 550.571,364.891 539.44,365.922Z" style="fill:rgb(79,138,136);"/>
        <path d="M365.745,437.579C366.171,437.556 365.777,436.405 366.203,436.382C366.387,436.373 366.302,436.515 367.578,438.228C367.21,438.193 367.138,437.553 365.477,438.484L365.745,437.579Z" style="fill:rgb(158,147,115);"/>
        <path d="M260.994,587.934C260.532,589.276 260.588,589.303 260.496,589.383C260.254,589.592 259.779,589.158 259.537,589.367C260.023,588.89 260.509,588.412 260.994,587.934Z" style="fill:rgb(159,190,191);"/>
    </g>
</svg>
